<svg xmlns="http://www.w3.org/2000/svg" width="1738" height="500" viewBox="0 0 1738 500">
<g>
<path d="M 171.50 340.38 C169.30,338.41 165.48,334.93 163.00,332.65 C160.52,330.37 155.12,325.57 151.00,322.00 C146.88,318.43 143.27,315.28 143.00,315.00 C142.73,314.73 138.23,310.67 133.01,306.00 C127.79,301.33 122.95,296.97 122.26,296.32 C121.31,295.44 121.00,289.02 121.00,270.57 L 121.00 246.00 L 123.76 246.00 C125.28,246.00 127.64,247.01 129.02,248.25 C130.39,249.49 133.31,252.02 135.51,253.88 C137.70,255.74 142.09,259.72 145.25,262.72 L 151.00 268.18 L 151.00 240.09 L 151.00 212.00 L 178.00 212.00 L 205.00 212.00 L 205.00 240.09 L 205.00 268.17 L 217.45 257.09 C227.53,248.11 230.47,246.00 232.95,246.00 L 236.00 246.00 L 236.00 270.41 L 236.00 294.82 L 228.25 301.81 C223.99,305.66 215.77,312.98 210.00,318.08 C204.23,323.19 195.40,331.11 190.38,335.68 C179.66,345.47 177.73,345.95 171.50,340.38 ZM 954.00 338.46 C940.90,336.65 935.18,334.88 923.26,328.93 C901.90,318.26 886.40,298.13 880.20,273.00 C876.48,257.95 875.69,248.96 876.29,228.61 C876.96,206.17 879.15,195.78 886.15,181.93 C893.52,167.36 907.83,155.37 923.72,150.44 C937.45,146.18 967.92,144.45 982.44,147.11 C1009.08,151.99 1025.08,164.34 1033.22,186.30 C1035.97,193.74 1036.30,195.92 1036.76,209.75 L 1037.27 225.00 L 982.04 225.00 L 926.81 225.00 L 927.47 230.25 C929.23,244.47 934.63,262.42 940.47,273.50 C952.14,295.64 970.72,309.43 991.83,311.64 C998.34,312.32 1010.00,310.27 1021.67,306.38 C1025.61,305.07 1030.00,304.00 1031.42,304.00 L 1034.00 304.00 L 1034.00 315.49 L 1034.00 326.97 L 1030.25 328.57 C1006.22,338.80 980.58,342.12 954.00,338.46 ZM 986.83 198.05 C987.29,193.15 982.67,182.04 977.91,176.63 C966.87,164.10 946.80,165.66 936.73,179.84 C931.75,186.85 927.36,197.88 928.43,200.68 C928.85,201.78 934.30,201.98 957.72,201.77 L 986.50 201.50 L 986.83 198.05 ZM 1117.00 339.41 C1116.18,339.21 1110.78,338.59 1105.00,338.01 C1091.86,336.71 1084.61,335.60 1074.75,333.37 L 1067.00 331.62 L 1067.00 314.31 C1067.00,294.11 1065.89,295.36 1079.54,300.14 C1103.42,308.52 1130.85,312.71 1144.23,310.02 C1169.21,305.00 1182.10,295.65 1188.10,278.20 C1190.14,272.28 1190.72,259.56 1189.00,258.50 C1188.45,258.16 1188.00,256.94 1188.00,255.79 C1188.00,252.25 1181.39,241.64 1176.13,236.72 C1170.46,231.41 1161.58,225.53 1148.50,218.40 C1143.55,215.71 1138.60,212.96 1137.50,212.29 C1136.40,211.62 1134.82,210.75 1134.00,210.36 C1127.30,207.14 1100.87,192.30 1095.27,188.61 C1085.95,182.47 1073.07,168.96 1069.65,161.74 C1064.76,151.39 1063.70,145.03 1064.30,129.51 C1064.86,115.14 1066.09,109.63 1070.82,100.35 C1079.35,83.62 1098.53,71.20 1122.99,66.56 C1140.79,63.18 1171.23,63.62 1193.00,67.57 C1197.68,68.42 1203.30,69.44 1205.50,69.83 L 1209.50 70.55 L 1209.77 87.28 C1210.10,106.93 1211.22,105.77 1196.44,101.03 C1176.47,94.63 1155.78,91.97 1140.57,93.84 C1135.27,94.49 1130.16,95.39 1129.22,95.85 C1114.04,103.13 1108.20,108.04 1104.35,116.75 C1100.63,125.14 1100.26,131.86 1103.10,139.27 C1105.04,144.32 1107.09,147.10 1114.00,154.00 C1122.49,162.48 1128.22,166.25 1151.00,178.35 C1187.45,197.72 1198.02,204.29 1207.48,213.48 C1215.34,221.10 1220.39,228.74 1223.77,238.12 C1226.12,244.63 1226.48,247.31 1226.81,260.79 C1227.25,278.81 1225.73,287.57 1220.26,298.50 C1208.45,322.13 1184.45,335.66 1148.50,338.98 C1138.09,339.94 1120.26,340.19 1117.00,339.41 ZM 1580.00 338.44 C1544.41,333.11 1522.87,314.87 1512.10,280.93 C1505.62,260.48 1505.08,215.15 1511.09,196.17 C1520.21,167.39 1534.88,153.06 1561.00,147.41 C1568.85,145.71 1592.98,145.53 1599.74,147.12 C1627.76,153.73 1643.58,172.73 1646.90,203.79 C1648.33,217.16 1648.29,225.31 1646.80,226.80 C1645.90,227.70 1632.64,228.00 1593.30,228.00 L 1541.00 228.00 L 1541.00 235.00 C1541.00,258.42 1549.82,281.89 1563.95,296.09 C1572.65,304.83 1579.94,308.85 1593.00,312.10 C1602.65,314.50 1613.60,314.27 1627.00,311.37 C1631.13,310.48 1636.53,309.70 1639.00,309.63 L 1643.50 309.50 L 1643.78 321.10 C1644.10,334.20 1644.17,334.05 1636.50,335.96 C1621.19,339.77 1596.21,340.87 1580.00,338.44 ZM 1612.17 198.00 C1611.49,190.71 1603.40,180.20 1594.80,175.44 C1589.98,172.76 1588.64,172.50 1579.98,172.50 C1571.27,172.50 1569.92,172.77 1563.84,175.76 C1560.16,177.57 1555.56,180.86 1553.48,183.15 C1549.48,187.58 1543.55,199.46 1544.54,201.06 C1544.91,201.66 1557.90,201.93 1578.82,201.76 L 1612.50 201.50 L 1612.17 198.00 ZM 464.00 201.50 L 464.00 68.00 L 491.50 68.00 L 518.99 68.00 L 519.25 183.75 L 519.50 299.50 L 569.50 300.00 L 619.50 300.50 L 619.15 317.00 C618.95,326.08 618.59,333.84 618.34,334.25 C618.09,334.66 583.26,335.00 540.94,335.00 L 464.00 335.00 L 464.00 201.50 ZM 1341.63 332.76 C1341.30,331.52 1341.02,325.82 1341.01,320.09 C1341.00,310.72 1341.23,309.38 1343.34,306.59 C1344.62,304.89 1347.32,301.14 1349.34,298.25 C1353.74,291.94 1358.70,284.86 1363.69,277.75 C1368.78,270.49 1388.53,242.29 1411.09,210.06 C1413.62,206.45 1420.02,197.31 1425.32,189.75 L 1434.95 176.00 L 1391.97 176.00 L 1349.00 176.00 L 1349.00 163.00 L 1349.00 150.00 L 1412.08 150.00 L 1475.15 150.00 L 1474.83 163.29 L 1474.50 176.57 L 1470.93 181.54 C1463.12,192.40 1436.45,230.41 1426.74,244.50 C1422.96,250.00 1417.43,257.88 1414.47,262.00 C1411.51,266.12 1404.86,275.58 1399.69,283.00 C1394.52,290.42 1388.14,299.57 1385.52,303.32 L 1380.75 310.13 L 1428.13 310.00 C1454.18,309.92 1476.08,309.89 1476.78,309.93 C1477.76,309.98 1478.00,312.84 1477.78,322.25 L 1477.50 334.50 L 1409.87 334.76 L 1342.24 335.01 L 1341.63 332.76 ZM 643.00 241.98 L 643.00 149.97 L 668.11 150.23 L 693.21 150.50 L 693.14 227.00 C693.10,269.08 693.05,310.36 693.03,318.75 L 693.00 334.00 L 668.00 334.00 L 643.00 334.00 L 643.00 241.98 ZM 757.76 255.25 L 757.50 176.50 L 741.25 176.23 L 725.00 175.95 L 725.00 163.00 L 725.00 150.05 L 741.25 149.77 L 757.50 149.50 L 758.15 134.28 C758.81,118.92 760.64,105.34 762.17,104.40 C762.63,104.11 763.00,103.15 763.00,102.25 C763.00,99.30 769.01,88.58 773.30,83.89 C781.08,75.38 791.59,69.86 806.76,66.33 C820.69,63.09 869.42,64.29 879.77,68.13 C882.03,68.96 882.05,69.11 881.77,85.23 L 881.50 101.50 L 878.00 101.39 C876.08,101.32 872.03,100.35 869.00,99.23 C849.80,92.08 828.54,93.17 819.43,101.76 C815.30,105.66 811.54,112.62 810.10,119.07 C808.72,125.20 807.57,144.16 808.38,147.38 L 809.04 150.00 L 835.05 150.00 L 861.06 150.00 L 860.78 162.25 L 860.50 174.50 L 835.22 174.77 L 809.94 175.03 L 808.97 177.58 C808.37,179.15 808.00,209.85 808.00,257.07 L 808.00 334.00 L 783.01 334.00 L 758.01 334.00 L 757.76 255.25 ZM 1269.98 333.78 C1269.94,333.36 1269.93,152.71 1269.97,151.25 C1269.99,150.31 1273.58,150.00 1284.51,150.00 L 1299.01 150.00 L 1298.76 241.75 L 1298.50 333.50 L 1284.25 333.78 C1276.41,333.93 1269.99,333.93 1269.98,333.78 ZM 151.48 180.77 C151.22,180.07 150.89,167.07 150.75,151.87 L 150.50 124.24 L 138.50 135.09 C129.45,143.27 125.82,145.95 123.75,145.97 L 121.00 146.00 L 121.00 121.25 L 121.00 96.49 L 141.11 78.50 C174.98,48.19 175.21,48.01 178.41,48.00 C180.61,48.00 183.28,49.76 189.41,55.25 C193.86,59.24 199.07,63.90 201.00,65.62 C211.24,74.73 228.03,89.80 231.75,93.21 L 236.00 97.11 L 236.00 121.56 L 236.00 146.00 L 233.04 146.00 C230.82,146.00 228.49,144.55 223.79,140.21 C220.33,137.03 214.80,132.06 211.50,129.17 L 205.50 123.91 L 205.00 152.70 L 204.50 181.50 L 178.23 181.77 C157.74,181.97 151.85,181.75 151.48,180.77 ZM 1678.50 141.34 C1666.35,137.28 1656.03,127.79 1650.30,115.41 C1647.75,109.91 1647.56,108.57 1647.53,96.00 L 1647.50 82.50 L 1651.18 74.79 C1659.72,56.90 1677.84,47.35 1699.23,49.45 C1716.11,51.12 1729.14,59.73 1735.63,73.50 C1737.82,78.16 1737.98,79.71 1737.99,96.05 C1738.00,113.10 1737.92,113.76 1735.31,119.05 C1731.60,126.57 1722.65,135.11 1714.32,139.09 C1708.04,142.08 1706.64,142.35 1695.52,142.67 C1686.24,142.93 1682.36,142.63 1678.50,141.34 ZM 1705.42 126.95 L 1710.34 124.50 L 1705.42 124.00 L 1700.50 123.50 L 1698.82 115.51 C1697.02,106.98 1694.85,104.00 1690.43,104.00 C1688.14,104.00 1688.06,104.26 1687.79,113.75 L 1687.50 123.50 L 1682.00 124.09 C1678.97,124.41 1676.72,124.75 1677.00,124.84 C1677.28,124.93 1680.20,126.15 1683.50,127.54 C1691.02,130.70 1698.28,130.51 1705.42,126.95 ZM 1673.00 95.85 L 1673.00 71.69 L 1670.85 73.60 C1669.66,74.64 1667.19,78.73 1665.35,82.68 C1660.72,92.62 1660.97,101.28 1666.18,111.41 C1667.53,114.04 1671.95,120.00 1672.55,120.00 C1672.80,120.00 1673.00,109.13 1673.00,95.85 ZM 1722.73 109.00 C1727.60,98.52 1725.91,85.30 1718.46,75.54 C1714.73,70.65 1706.36,65.29 1699.82,63.61 C1695.10,62.39 1693.25,62.36 1688.82,63.40 C1684.20,64.49 1675.00,68.45 1675.00,69.35 C1675.00,69.52 1681.41,69.63 1689.25,69.58 C1705.30,69.49 1709.77,70.72 1712.50,76.00 C1715.32,81.45 1713.45,96.00 1709.94,96.00 C1709.13,96.00 1709.21,96.69 1710.21,98.25 C1711.96,100.99 1713.70,107.62 1714.59,114.96 L 1715.25 120.43 L 1717.71 117.46 C1719.07,115.83 1721.33,112.03 1722.73,109.00 ZM 1696.78 89.44 C1699.25,87.71 1699.68,84.81 1697.70,83.17 C1696.99,82.57 1694.51,81.79 1692.20,81.42 L 1688.00 80.74 L 1688.00 85.87 C1688.00,91.00 1688.00,91.00 1691.28,91.00 C1693.08,91.00 1695.56,90.30 1696.78,89.44 ZM 643.00 90.50 L 643.00 68.00 L 668.00 68.00 L 693.00 68.00 L 693.00 90.50 L 693.00 113.00 L 668.00 113.00 L 643.00 113.00 L 643.00 90.50 ZM 1265.00 87.52 L 1265.00 68.00 L 1284.52 68.00 L 1304.04 68.00 L 1303.77 87.25 L 1303.50 106.50 L 1284.25 106.77 L 1265.00 107.04 L 1265.00 87.52 Z" fill="rgb(43,71,117)"/>
<path d="M 1361.52 495.46 C1355.09,493.69 1353.68,491.79 1354.53,486.00 C1354.90,483.52 1355.40,481.16 1355.66,480.75 C1356.47,479.43 1360.62,479.95 1365.12,481.93 C1378.07,487.65 1393.00,483.86 1393.00,474.85 C1393.00,472.30 1392.70,471.92 1391.25,472.56 C1390.29,472.98 1386.04,473.53 1381.82,473.77 C1368.57,474.52 1360.41,470.49 1355.20,460.62 C1352.68,455.84 1352.50,454.68 1352.52,443.00 C1352.55,429.67 1353.09,427.71 1358.76,420.13 C1362.46,415.20 1370.86,411.73 1379.00,411.78 C1398.34,411.91 1404.67,412.10 1406.25,412.59 C1407.87,413.09 1408.00,415.63 1408.00,447.10 C1408.00,484.43 1407.89,485.22 1401.93,490.91 C1400.15,492.62 1396.43,494.69 1393.66,495.51 C1387.34,497.39 1368.44,497.35 1361.52,495.46 ZM 1388.66 459.94 C1390.20,459.35 1391.80,458.34 1392.21,457.69 C1392.63,457.03 1392.98,450.16 1392.98,442.40 C1393.00,429.88 1392.79,428.12 1391.12,426.61 C1388.50,424.24 1382.67,423.49 1378.77,425.03 C1371.36,427.96 1368.00,433.62 1368.00,443.16 C1368.00,456.35 1377.60,464.14 1388.66,459.94 ZM 750.00 474.11 C737.28,472.09 730.81,463.25 730.17,447.01 C729.34,426.24 734.56,417.07 749.85,412.43 C755.90,410.60 762.85,410.62 767.35,412.50 L 770.94 414.00 L 771.22 401.75 L 771.50 389.50 L 776.43 389.19 C779.15,389.02 782.41,389.14 783.69,389.46 L 786.02 390.04 L 785.76 431.77 L 785.50 473.50 L 777.50 473.61 C773.10,473.68 766.12,473.98 762.00,474.28 C757.88,474.58 752.47,474.50 750.00,474.11 ZM 768.10 459.93 L 771.00 457.86 L 771.00 443.57 C771.00,429.46 770.97,429.24 768.36,426.64 C763.72,421.99 754.77,423.82 749.21,430.56 C747.01,433.24 746.07,435.62 745.60,439.83 C744.87,446.27 746.87,454.66 749.74,457.27 C755.27,462.27 763.19,463.42 768.10,459.93 ZM 839.75 473.92 C838.79,473.36 838.00,472.43 838.00,471.85 C838.00,471.27 837.35,469.38 836.56,467.65 C835.77,465.92 834.69,462.92 834.15,461.00 C833.62,459.08 831.52,453.00 829.50,447.50 C822.37,428.11 819.89,419.75 820.20,416.12 L 820.50 412.50 L 827.06 412.21 C834.65,411.87 834.35,411.56 838.30,424.00 C839.61,428.12 842.40,436.79 844.51,443.26 L 848.34 455.02 L 855.21 434.30 C858.99,422.90 862.62,413.21 863.29,412.78 C863.95,412.34 866.97,412.10 870.00,412.24 C875.47,412.50 875.50,412.52 875.83,415.92 C876.01,417.81 875.71,420.28 875.17,421.42 C873.57,424.82 864.18,451.25 863.42,454.50 C863.04,456.15 862.39,457.95 861.98,458.50 C861.58,459.05 860.21,462.58 858.96,466.34 C857.23,471.50 856.08,473.40 854.27,474.09 C851.07,475.30 841.94,475.20 839.75,473.92 ZM 916.00 474.40 C910.09,473.32 908.84,472.84 906.97,470.97 C905.01,469.01 904.29,463.02 905.61,459.58 C906.44,457.41 910.77,457.59 915.76,460.00 C922.80,463.40 930.00,461.87 930.00,456.98 C930.00,455.53 925.15,450.00 923.88,450.00 C921.93,450.00 910.65,441.49 908.89,438.68 C907.25,436.06 906.95,434.12 907.21,427.66 C907.51,420.10 907.65,419.71 911.14,416.51 C917.23,410.93 931.01,409.60 940.72,413.66 C943.95,415.01 944.00,415.13 944.00,421.51 C944.00,427.99 943.99,428.00 941.13,428.00 C939.56,428.00 935.96,427.04 933.15,425.87 C928.77,424.05 927.60,423.92 925.09,424.96 C921.97,426.26 920.76,428.02 921.84,429.69 C922.20,430.25 926.33,433.18 931.00,436.21 C943.91,444.57 946.71,448.80 945.72,458.45 C944.64,468.88 938.38,474.01 926.10,474.53 C921.92,474.71 917.38,474.65 916.00,474.40 ZM 1000.87 474.04 C995.13,473.00 992.42,471.63 988.18,467.63 C981.99,461.79 979.64,453.98 980.19,441.15 C980.84,426.35 985.27,418.47 995.60,413.81 C1002.71,410.60 1017.48,410.65 1024.22,413.91 C1030.41,416.90 1035.34,422.48 1037.48,428.94 C1040.06,436.72 1039.30,454.81 1036.13,460.87 C1031.53,469.64 1024.66,473.73 1013.35,474.41 C1009.03,474.67 1003.42,474.51 1000.87,474.04 ZM 1017.21 459.67 C1021.09,456.82 1023.17,451.71 1023.34,444.64 C1023.60,433.96 1021.27,428.31 1015.32,425.16 C1009.41,422.03 1000.94,425.35 997.41,432.18 C995.38,436.11 995.37,449.89 997.40,453.78 C1002.01,462.66 1009.94,465.02 1017.21,459.67 ZM 1151.50 474.42 C1146.13,473.15 1142.00,471.60 1142.00,470.84 C1142.00,470.38 1141.53,470.00 1140.95,470.00 C1139.28,470.00 1135.35,465.61 1133.14,461.27 C1129.63,454.40 1128.43,445.05 1129.92,436.19 C1131.35,427.67 1132.94,423.89 1136.86,419.66 C1147.06,408.67 1171.14,408.47 1181.39,419.30 L 1184.50 422.59 L 1184.63 418.18 C1184.78,413.23 1185.96,412.04 1190.75,412.02 L 1194.00 412.00 L 1194.00 405.15 C1194.00,397.33 1196.38,392.57 1201.54,390.06 C1205.63,388.07 1215.34,387.48 1219.00,389.00 C1221.86,390.19 1222.00,390.52 1222.00,396.25 L 1222.00 402.25 L 1217.06 401.78 C1214.35,401.52 1211.60,401.63 1210.95,402.03 C1210.31,402.43 1209.55,404.83 1209.26,407.38 L 1208.74 412.00 L 1214.25 412.00 C1220.90,412.00 1222.24,413.27 1221.81,419.18 L 1221.50 423.50 L 1215.50 424.00 L 1209.50 424.50 L 1209.00 449.00 L 1208.50 473.50 L 1201.27 473.79 L 1194.04 474.09 L 1193.77 449.29 L 1193.50 424.50 L 1189.31 424.20 L 1185.11 423.89 L 1187.06 429.42 C1189.69,436.92 1189.67,448.74 1187.00,456.50 C1182.77,468.78 1176.02,473.65 1162.18,474.42 C1157.41,474.68 1152.60,474.68 1151.50,474.42 ZM 1168.18 458.33 C1171.69,454.96 1172.99,450.48 1172.99,441.70 C1173.00,430.83 1168.73,425.07 1160.04,424.23 C1155.75,423.82 1154.53,424.12 1151.61,426.35 C1143.66,432.41 1142.59,449.65 1149.65,457.91 C1154.67,463.77 1162.31,463.95 1168.18,458.33 ZM 1310.38 474.13 C1303.49,472.91 1296.33,467.38 1292.71,460.50 C1291.08,457.40 1290.51,454.15 1290.19,446.12 C1289.63,432.50 1291.90,424.27 1297.68,418.86 C1308.20,409.03 1330.82,408.73 1340.86,418.29 C1346.96,424.11 1348.40,428.82 1348.45,443.20 C1348.49,452.08 1348.12,456.27 1347.25,457.15 C1346.56,457.84 1346.00,459.13 1346.00,460.02 C1346.00,462.47 1339.27,469.82 1335.06,471.97 C1330.86,474.11 1317.07,475.32 1310.38,474.13 ZM 1323.01 462.00 C1325.03,462.00 1330.39,456.26 1332.12,452.23 C1336.04,443.07 1332.90,429.07 1326.13,425.57 C1319.66,422.22 1313.05,424.01 1308.49,430.35 C1305.82,434.07 1305.64,434.93 1305.68,443.87 C1305.71,450.06 1306.13,453.54 1306.86,453.79 C1307.49,454.00 1308.00,454.78 1308.00,455.53 C1308.00,458.59 1317.02,463.39 1320.83,462.36 C1321.56,462.16 1322.54,462.00 1323.01,462.00 ZM 1455.53 474.32 C1451.61,473.67 1447.14,470.40 1445.71,467.13 C1445.03,465.59 1444.33,456.25 1444.03,444.50 L 1443.50 424.50 L 1439.25 424.19 L 1435.00 423.89 L 1435.02 419.19 C1435.03,413.24 1435.71,412.24 1440.01,411.83 L 1443.50 411.50 L 1444.00 404.50 L 1444.50 397.50 L 1451.50 397.50 L 1458.50 397.50 L 1458.79 404.75 L 1459.09 412.00 L 1467.44 412.00 C1476.82,412.00 1477.00,412.14 1477.00,419.54 L 1477.00 423.92 L 1468.25 424.21 L 1459.50 424.50 L 1459.25 440.50 C1458.96,459.56 1459.56,461.64 1465.29,461.25 C1467.33,461.11 1470.69,460.89 1472.75,460.75 L 1476.50 460.50 L 1476.80 466.19 C1477.05,470.91 1476.78,472.05 1475.22,472.88 C1473.01,474.06 1459.79,475.03 1455.53,474.32 ZM 1499.00 474.13 C1491.56,472.49 1484.84,467.44 1481.49,460.99 C1479.29,456.73 1477.69,446.23 1478.33,440.21 C1479.43,429.86 1481.80,423.92 1486.86,418.86 C1492.57,413.14 1497.69,411.44 1508.50,411.67 C1517.74,411.86 1522.64,413.59 1527.11,418.27 C1532.20,423.58 1533.34,426.74 1533.81,436.75 L 1534.24 446.00 L 1515.37 446.02 C1504.99,446.02 1495.85,446.44 1495.06,446.94 C1493.83,447.72 1493.89,448.42 1495.44,451.87 C1499.76,461.44 1507.60,464.09 1519.50,460.00 C1529.00,456.73 1531.02,457.40 1530.99,463.83 C1530.96,468.67 1529.84,470.85 1526.59,472.39 C1522.89,474.15 1504.37,475.31 1499.00,474.13 ZM 1518.00 433.46 C1518.00,431.03 1514.95,427.03 1511.90,425.45 C1508.06,423.46 1504.11,423.64 1500.30,425.96 C1497.06,427.93 1493.55,433.22 1494.71,434.37 C1495.05,434.72 1500.43,435.00 1506.67,435.00 C1516.19,435.00 1518.00,434.75 1518.00,433.46 ZM 1558.00 474.12 C1548.47,472.57 1540.25,465.90 1537.80,457.76 C1537.10,455.41 1536.53,448.58 1536.54,442.50 C1536.55,432.54 1536.80,431.02 1539.21,426.41 C1542.75,419.65 1547.76,415.43 1554.75,413.33 C1564.78,410.33 1581.44,411.58 1585.50,415.65 C1586.64,416.79 1587.01,418.70 1586.80,422.37 L 1586.50 427.50 L 1582.50 427.39 C1580.30,427.33 1576.47,426.47 1573.99,425.48 C1568.15,423.16 1563.15,424.05 1558.33,428.28 C1553.69,432.36 1552.00,436.49 1552.02,443.72 C1552.04,450.63 1554.83,456.30 1559.91,459.72 C1564.11,462.55 1568.26,462.60 1575.98,459.93 C1584.62,456.94 1586.42,457.44 1586.82,462.92 C1587.32,469.92 1586.47,471.77 1582.24,472.96 C1577.18,474.37 1563.53,475.03 1558.00,474.12 ZM 642.44 471.60 C641.86,469.31 642.88,464.47 644.99,459.50 C645.45,458.40 646.06,456.60 646.33,455.50 C646.61,454.40 648.03,450.35 649.49,446.50 C652.50,438.57 656.77,426.50 660.99,414.00 C668.36,392.15 667.52,393.35 676.00,392.50 C684.60,391.64 687.01,392.87 688.97,399.15 C690.77,404.89 697.77,426.00 705.64,449.40 C709.14,459.80 712.00,469.58 712.00,471.15 L 712.00 474.00 L 704.62 474.00 C699.93,474.00 696.88,473.55 696.23,472.75 C695.67,472.06 694.27,468.12 693.12,464.00 C691.96,459.88 690.16,454.25 689.11,451.50 L 687.20 446.50 L 676.75 446.22 C669.15,446.01 666.01,446.29 665.23,447.23 C663.58,449.21 661.15,456.14 657.75,468.50 L 656.38 473.50 L 649.72 473.80 C643.35,474.08 643.03,473.98 642.44,471.60 ZM 683.00 432.69 C683.00,431.97 681.47,426.69 679.60,420.94 C676.57,411.64 676.13,410.83 675.52,413.50 C675.14,415.15 673.52,420.24 671.91,424.80 C670.31,429.37 669.00,433.31 669.00,433.55 C669.00,433.80 672.15,434.00 676.00,434.00 C681.10,434.00 683.00,433.64 683.00,432.69 ZM 799.71 473.37 C798.40,472.07 798.87,414.53 800.20,413.20 C801.87,411.53 811.47,411.65 812.89,413.37 C813.70,414.34 813.95,423.28 813.77,444.12 L 813.50 473.50 L 806.96 473.79 C803.36,473.95 800.10,473.76 799.71,473.37 ZM 882.24 443.25 L 882.50 412.50 L 889.00 412.50 L 895.50 412.50 L 895.76 443.25 L 896.03 474.00 L 889.00 474.00 L 881.97 474.00 L 882.24 443.25 ZM 956.24 443.25 L 956.50 412.50 L 963.00 412.50 L 969.50 412.50 L 969.76 443.25 L 970.03 474.00 L 963.00 474.00 L 955.97 474.00 L 956.24 443.25 ZM 1049.67 473.33 C1049.30,472.97 1049.00,459.56 1049.00,443.53 C1049.00,422.21 1049.32,414.08 1050.20,413.20 C1051.70,411.70 1061.22,411.62 1062.69,413.09 C1063.48,413.88 1064.39,413.86 1065.98,413.01 C1067.19,412.36 1071.40,411.60 1075.34,411.31 C1085.26,410.59 1092.94,413.44 1096.79,419.26 L 1099.50 423.35 L 1099.83 448.67 L 1100.15 474.00 L 1092.66 474.00 L 1085.17 474.00 L 1084.83 452.25 C1084.48,429.02 1084.12,427.29 1079.26,425.07 C1075.53,423.37 1070.07,423.81 1066.90,426.07 L 1064.00 428.14 L 1064.00 451.07 L 1064.00 474.00 L 1057.17 474.00 C1053.41,474.00 1050.03,473.70 1049.67,473.33 ZM 1247.46 472.75 C1247.19,472.06 1247.09,453.95 1247.24,432.50 L 1247.50 393.50 L 1254.50 393.50 L 1261.50 393.50 L 1262.00 427.00 L 1262.50 460.50 L 1276.50 461.00 L 1290.50 461.50 L 1290.80 467.75 L 1291.10 474.00 L 1269.52 474.00 C1253.15,474.00 1247.82,473.70 1247.46,472.75 ZM 1418.71 473.37 C1417.85,472.51 1417.75,415.81 1418.61,413.58 C1419.07,412.37 1420.70,412.00 1425.59,412.00 C1431.37,412.00 1432.01,412.21 1432.51,414.25 C1432.81,415.49 1432.93,429.33 1432.78,445.00 L 1432.50 473.50 L 1425.96 473.79 C1422.36,473.95 1419.10,473.76 1418.71,473.37 ZM 1594.71 473.37 C1594.32,472.99 1594.00,454.11 1594.00,431.44 C1594.00,394.77 1594.17,390.15 1595.58,389.61 C1598.33,388.55 1606.55,388.95 1607.80,390.20 C1608.59,390.99 1609.00,395.23 1609.00,402.65 L 1609.00 413.90 L 1613.75 412.46 C1620.13,410.53 1626.55,410.63 1632.00,412.76 C1638.55,415.31 1639.54,416.08 1641.98,420.44 C1643.93,423.94 1644.25,426.33 1644.73,441.44 C1645.04,450.83 1644.96,461.99 1644.56,466.25 L 1643.83 474.00 L 1636.91 474.00 L 1630.00 474.00 L 1630.00 453.65 C1630.00,431.66 1629.45,428.83 1624.51,425.60 C1620.95,423.27 1613.89,423.84 1610.00,426.78 C1609.72,426.99 1609.28,437.59 1609.00,450.33 L 1608.50 473.50 L 1601.96 473.79 C1598.36,473.95 1595.10,473.76 1594.71,473.37 ZM 800.22 404.44 C798.39,403.16 798.00,401.93 798.00,397.51 C798.00,390.50 799.50,389.00 806.50,389.00 C813.37,389.00 815.00,390.54 815.00,397.07 C815.00,403.51 812.69,406.00 806.72,406.00 C804.37,406.00 801.44,405.30 800.22,404.44 ZM 882.65 404.17 C880.94,402.28 880.33,393.54 881.77,391.40 C884.21,387.73 891.16,387.32 895.78,390.56 C897.56,391.80 898.00,393.09 898.00,396.98 C898.00,401.05 897.57,402.20 895.37,403.93 C891.94,406.62 884.99,406.75 882.65,404.17 ZM 956.65 404.17 C954.45,401.74 954.40,392.75 956.57,390.57 C958.95,388.19 967.46,388.46 970.00,391.00 C972.99,393.99 972.15,403.01 968.69,405.21 C966.27,406.75 958.37,406.07 956.65,404.17 ZM 1418.56 403.78 C1417.69,402.54 1417.00,399.50 1417.00,396.93 C1417.00,390.82 1419.01,389.00 1425.76,389.00 C1432.48,389.00 1434.00,390.57 1434.00,397.51 C1434.00,404.08 1431.93,406.00 1424.83,406.00 C1421.09,406.00 1419.79,405.54 1418.56,403.78 ZM 641.93 334.60 C641.69,334.36 641.50,292.62 641.50,241.83 L 641.50 149.50 L 667.25 149.23 L 693.00 148.97 L 693.00 151.68 C693.00,153.80 692.73,154.13 691.80,153.20 C690.94,152.34 684.20,152.00 667.80,152.00 L 645.00 152.00 L 645.00 242.00 L 645.00 332.00 L 668.00 332.00 L 691.00 332.00 L 691.00 328.00 C691.00,325.05 691.41,324.00 692.55,324.00 C693.80,324.00 694.04,325.04 693.80,329.25 L 693.50 334.50 L 667.93 334.77 C653.87,334.91 642.17,334.84 641.93,334.60 ZM 758.00 332.52 C758.00,331.13 758.45,330.00 759.00,330.00 C759.55,330.00 760.00,330.45 760.00,331.00 C760.00,331.64 768.33,332.00 783.00,332.00 L 806.00 332.00 L 806.00 254.50 C806.00,211.88 806.04,176.66 806.09,176.25 C806.42,173.27 808.64,173.00 833.15,173.00 C854.37,173.00 858.15,172.78 858.64,171.50 C859.68,168.78 861.13,169.94 860.81,173.25 L 860.50 176.50 L 835.26 176.77 L 810.01 177.03 L 809.76 255.77 L 809.50 334.50 L 783.75 334.77 L 758.00 335.03 L 758.00 332.52 ZM 1268.46 333.75 C1268.20,333.06 1268.10,291.33 1268.24,241.00 L 1268.50 149.50 L 1284.00 149.50 L 1299.50 149.50 L 1299.76 242.25 L 1300.01 335.00 L 1284.47 335.00 C1272.97,335.00 1268.81,334.68 1268.46,333.75 ZM 1296.76 241.75 L 1297.01 152.00 L 1284.51 152.00 C1275.18,152.00 1271.99,152.32 1271.98,153.25 C1271.96,154.60 1271.96,331.32 1271.99,331.78 C1271.99,331.94 1277.51,331.94 1284.25,331.78 L 1296.50 331.50 L 1296.76 241.75 ZM 859.00 153.00 C859.00,152.36 849.67,152.00 833.02,152.00 L 807.04 152.00 L 806.37 149.35 C805.50,145.86 806.65,123.51 808.02,117.39 C810.16,107.88 817.64,97.11 823.12,95.68 C826.41,94.82 825.25,98.09 820.97,101.76 C813.00,108.58 810.03,117.93 810.01,136.25 L 810.00 149.00 L 835.50 149.00 L 861.00 149.00 L 861.00 151.50 C861.00,152.88 860.55,154.00 860.00,154.00 C859.45,154.00 859.00,153.55 859.00,153.00 ZM 641.67 113.25 C641.42,112.84 641.26,102.47 641.31,90.22 C641.40,68.64 641.47,67.92 643.45,67.44 C644.58,67.16 656.30,67.06 669.50,67.22 L 693.50 67.50 L 693.81 70.75 C694.05,73.16 693.72,74.00 692.56,74.00 C691.67,74.00 691.00,73.15 691.00,72.00 C691.00,70.06 690.33,70.00 668.00,70.00 L 645.00 70.00 L 645.00 90.50 L 645.00 111.00 L 668.00 111.00 C682.67,111.00 691.00,110.64 691.00,110.00 C691.00,109.45 691.45,109.00 692.00,109.00 C692.55,109.00 693.00,110.12 693.00,111.50 L 693.00 114.00 L 667.56 114.00 C653.57,114.00 641.92,113.66 641.67,113.25 ZM 1705.00 97.02 C1705.00,96.49 1706.09,95.33 1707.43,94.46 C1711.78,91.60 1713.31,83.43 1710.50,78.00 C1707.89,72.95 1703.56,71.71 1688.80,71.78 C1679.04,71.82 1675.51,72.17 1674.88,73.17 C1674.29,74.09 1674.03,73.67 1674.02,71.83 C1674.00,69.27 1674.28,69.13 1680.64,68.45 C1689.86,67.46 1703.86,68.47 1707.59,70.39 C1713.56,73.47 1714.50,75.39 1714.50,84.53 C1714.50,91.95 1714.24,93.12 1712.08,95.42 C1709.72,97.93 1705.00,98.99 1705.00,97.02 ZM 1736.67 87.33 C1735.61,86.28 1735.89,80.00 1737.00,80.00 C1737.55,80.00 1738.00,81.80 1738.00,84.00 C1738.00,88.09 1737.83,88.50 1736.67,87.33 Z" fill="rgb(121,127,136)"/>
<path d="M 162.00 393.43 C145.77,391.57 138.97,390.46 129.00,388.03 C115.79,384.83 101.81,379.77 90.01,373.95 C81.67,369.83 65.10,359.93 62.78,357.67 C62.08,356.99 59.92,355.36 58.00,354.04 C51.44,349.57 34.09,333.52 27.85,326.15 C13.53,309.26 0.00,287.13 0.00,280.58 C0.00,275.36 2.56,275.88 10.69,282.75 C14.44,285.91 18.17,289.03 19.00,289.68 C45.83,310.89 86.86,328.34 125.50,334.98 C136.19,336.82 168.41,340.09 171.50,339.65 C173.35,339.39 175.19,339.84 176.31,340.82 C177.76,342.10 178.48,342.18 180.03,341.21 C181.09,340.55 188.60,339.53 196.73,338.94 C218.56,337.36 230.38,335.49 250.00,330.50 C267.62,326.03 267.37,326.11 282.50,320.06 C306.14,310.61 325.00,299.60 342.92,284.79 C356.71,273.39 360.18,274.32 353.96,287.75 C342.11,313.35 314.40,343.94 286.50,362.23 C279.50,366.81 258.27,378.15 254.50,379.31 C253.40,379.65 249.35,381.10 245.50,382.53 C238.45,385.15 236.85,385.62 225.00,388.53 C211.95,391.74 201.12,393.02 183.50,393.42 C173.60,393.64 163.93,393.65 162.00,393.43 ZM 0.00 110.65 C0.00,106.92 1.46,103.64 7.12,94.64 C9.24,91.26 11.69,87.22 12.56,85.66 C19.44,73.34 42.93,48.34 58.18,37.12 C63.51,33.21 68.09,30.00 68.36,30.00 C68.64,30.00 71.48,28.29 74.68,26.20 C89.32,16.64 107.44,9.02 129.00,3.37 C139.33,0.66 140.08,0.61 174.86,0.24 C204.56,-0.08 211.51,0.12 218.36,1.49 C270.42,11.87 316.04,43.22 345.27,88.70 C351.61,98.57 357.00,109.19 357.00,111.81 C357.00,115.62 351.66,114.72 346.69,110.08 C327.30,91.96 294.34,73.72 266.00,65.41 C237.30,57.00 218.65,53.63 194.00,52.41 C187.68,52.10 181.48,51.35 180.23,50.74 C178.55,49.92 177.66,49.94 176.78,50.82 C176.12,51.48 172.77,52.00 169.14,52.00 C161.24,52.00 134.00,54.66 128.50,55.97 C126.30,56.50 122.47,57.21 120.00,57.56 C108.88,59.13 84.07,66.56 71.21,72.18 C68.85,73.21 65.02,74.79 62.71,75.71 C60.39,76.62 56.82,78.40 54.77,79.68 C52.72,80.96 50.63,82.00 50.12,82.00 C49.62,82.00 46.24,83.80 42.62,86.00 C39.00,88.20 35.58,90.00 35.02,90.00 C34.46,90.00 34.00,90.35 34.00,90.78 C34.00,91.22 32.74,92.31 31.21,93.22 C26.06,96.26 12.53,106.74 9.05,110.39 C6.70,112.86 4.72,114.00 2.80,114.00 C0.29,114.00 0.00,113.65 0.00,110.65 Z" fill="rgb(234,130,63)"/>
<path d="M -0.00 389.80 C-0.00,327.27 0.38,280.01 0.87,280.55 C1.35,281.07 3.67,285.10 6.03,289.50 C12.10,300.82 20.80,313.48 29.85,324.15 C36.09,331.52 53.44,347.57 60.00,352.04 C61.92,353.36 64.08,354.99 64.78,355.67 C67.10,357.93 83.67,367.83 92.01,371.95 C109.34,380.50 130.93,387.10 151.50,390.14 C171.19,393.04 203.05,391.43 223.00,386.53 C234.83,383.63 236.44,383.15 243.50,380.53 C247.35,379.10 251.40,377.65 252.50,377.31 C256.27,376.15 277.50,364.81 284.50,360.23 C301.21,349.27 321.85,330.30 333.15,315.50 C342.10,303.77 351.18,288.79 354.35,280.53 C355.18,278.38 355.39,278.23 343.50,288.02 C327.04,301.57 307.39,312.91 284.50,322.06 C269.37,328.11 269.62,328.03 252.00,332.50 C239.18,335.76 233.26,336.94 219.50,338.99 C211.67,340.15 180.99,342.32 180.42,341.75 C179.96,341.30 189.11,332.79 208.00,316.09 C213.77,310.98 221.99,303.66 226.25,299.81 L 234.00 292.82 L 234.00 270.41 C234.00,255.18 233.66,248.00 232.93,248.00 C231.89,248.00 206.71,270.05 205.48,272.04 C203.50,275.23 203.00,269.32 203.00,242.94 L 203.00 214.00 L 178.00 214.00 L 153.00 214.00 L 153.00 243.00 C153.00,259.37 152.61,272.00 152.11,272.00 C151.61,272.00 148.13,269.15 144.36,265.66 C140.59,262.17 135.70,257.78 133.51,255.91 C131.31,254.03 128.39,251.49 127.02,250.25 C125.64,249.01 124.18,248.00 123.76,248.00 C123.34,248.00 123.00,258.16 123.00,270.57 C123.00,287.41 123.32,293.44 124.26,294.32 C124.95,294.97 129.79,299.33 135.01,304.00 C140.23,308.67 144.73,312.73 145.00,313.00 C145.27,313.28 148.88,316.43 153.00,320.00 C157.12,323.57 162.61,328.46 165.20,330.87 C167.78,333.27 171.26,336.37 172.93,337.75 C174.60,339.13 175.72,340.65 175.42,341.13 C173.94,343.52 130.76,339.01 110.50,334.34 C75.35,326.24 40.76,310.46 17.00,291.68 C16.17,291.03 12.44,287.91 8.69,284.75 C4.95,281.59 1.46,279.00 0.94,279.00 C0.36,279.00 0.00,226.22 0.00,139.50 L 0.00 0.00 L 77.75 0.09 C147.59,0.17 154.84,0.32 149.00,1.60 C121.32,7.68 118.00,8.61 104.50,14.01 C94.56,17.99 84.29,23.23 76.68,28.20 C73.48,30.29 70.64,32.00 70.36,32.00 C70.09,32.00 65.51,35.21 60.18,39.12 C44.93,50.34 21.44,75.34 14.56,87.66 C13.69,89.22 11.28,93.20 9.21,96.50 C5.46,102.48 1.00,110.64 1.00,111.53 C1.00,113.09 4.10,111.48 7.05,108.39 C10.53,104.74 24.06,94.26 29.21,91.22 C30.74,90.31 32.00,89.22 32.00,88.78 C32.00,88.35 32.46,88.00 33.02,88.00 C33.58,88.00 37.00,86.20 40.62,84.00 C44.24,81.80 47.62,80.00 48.12,80.00 C48.63,80.00 50.72,78.96 52.77,77.68 C54.82,76.40 58.39,74.62 60.71,73.71 C63.02,72.79 66.85,71.21 69.21,70.18 C82.43,64.40 107.39,56.97 118.50,55.50 C121.25,55.14 124.85,54.45 126.50,53.98 C131.54,52.53 162.05,49.86 169.77,50.19 L 177.04 50.50 L 170.69 56.00 C167.19,59.03 155.03,69.82 143.67,80.00 L 123.00 98.50 L 123.00 121.33 C123.00,135.55 123.36,144.04 123.96,143.83 C124.49,143.65 131.01,137.99 138.43,131.25 C145.86,124.51 152.17,119.00 152.46,119.00 C152.74,119.00 153.09,132.61 153.24,149.25 L 153.50 179.50 L 178.00 179.50 L 202.50 179.50 L 202.76 149.25 C202.91,132.61 203.31,119.00 203.65,119.00 C204.30,119.00 214.89,128.19 225.79,138.22 C229.24,141.40 232.51,144.00 233.04,144.00 C233.63,144.00 234.00,135.28 234.00,121.56 L 234.00 99.11 L 229.75 95.21 C225.72,91.51 213.58,80.63 194.94,64.00 C190.32,59.88 184.95,55.00 183.02,53.17 L 179.50 49.84 L 193.50 50.38 C219.48,51.39 238.08,54.64 268.00,63.41 C296.40,71.74 329.29,89.96 348.77,108.16 C351.12,110.36 353.48,112.01 354.02,111.83 C355.19,111.43 350.64,102.46 343.71,91.50 C320.47,54.72 284.60,25.60 245.50,11.77 C232.06,7.02 226.40,5.46 214.00,3.10 C208.23,2.00 202.60,0.91 201.50,0.67 C200.40,0.43 545.66,0.18 968.75,0.12 L 1738.00 0.00 L 1737.93 42.25 L 1737.87 84.50 L 1734.59 77.50 C1725.66,58.43 1707.32,48.71 1686.50,51.98 C1671.45,54.35 1659.73,63.08 1653.18,76.79 C1649.59,84.32 1649.50,84.77 1649.54,96.00 C1649.58,106.36 1649.85,108.09 1652.31,113.41 C1658.20,126.20 1668.69,135.60 1681.39,139.48 C1689.59,141.98 1703.30,141.18 1711.01,137.74 C1722.58,132.59 1731.71,122.80 1735.96,110.97 L 1737.93 105.50 L 1737.96 302.75 L 1738.00 500.00 L 869.00 500.00 L 0.00 500.00 L -0.00 389.80 ZM 1391.66 493.51 C1394.43,492.69 1398.15,490.62 1399.93,488.91 C1405.85,483.26 1406.00,482.24 1406.00,447.14 C1406.00,418.95 1405.81,415.14 1404.42,414.61 C1401.55,413.51 1397.69,413.97 1395.85,415.64 C1394.57,416.79 1393.66,416.98 1392.77,416.25 C1390.65,414.55 1380.95,412.92 1377.11,413.62 C1370.77,414.78 1363.38,418.63 1360.76,422.13 C1355.32,429.39 1354.59,431.87 1354.55,443.00 C1354.52,454.39 1356.07,459.13 1361.79,465.25 C1367.29,471.11 1380.21,473.60 1389.00,470.50 C1391.34,469.67 1393.64,469.00 1394.13,469.00 C1394.61,469.00 1395.00,471.45 1395.00,474.45 C1395.00,481.01 1392.40,484.27 1385.74,486.08 C1380.10,487.61 1369.22,486.63 1363.42,484.07 C1360.87,482.94 1358.43,482.23 1358.01,482.50 C1356.68,483.32 1356.28,489.00 1357.44,490.58 C1360.36,494.57 1381.88,496.41 1391.66,493.51 ZM 769.33 470.77 C772.31,469.88 773.32,469.90 773.93,470.88 C774.41,471.66 776.35,472.01 779.10,471.81 L 783.50 471.50 L 783.76 431.77 L 784.02 392.04 L 781.63 391.44 C780.32,391.11 777.95,390.99 776.37,391.17 L 773.50 391.50 L 773.22 403.75 C772.90,417.50 772.82,417.62 765.35,414.50 C760.89,412.64 757.81,412.62 751.85,414.43 C740.43,417.90 735.47,423.08 733.00,434.12 C730.37,445.85 732.76,458.34 738.98,465.35 C745.13,472.30 757.08,474.44 769.33,470.77 ZM 852.27 472.09 C854.08,471.40 855.23,469.50 856.96,464.34 C858.21,460.58 859.58,457.05 859.98,456.50 C860.39,455.95 861.04,454.15 861.42,452.50 C862.20,449.17 871.60,422.75 873.23,419.32 C874.82,415.97 873.53,414.00 869.78,414.02 C867.98,414.02 865.95,414.38 865.29,414.80 C864.62,415.22 860.89,425.20 856.99,436.96 C849.53,459.47 848.61,461.80 847.74,460.38 C847.11,459.37 841.69,443.12 837.09,428.50 C832.57,414.13 832.48,414.00 827.30,414.00 C824.27,414.00 822.75,414.48 822.34,415.56 C821.73,417.16 824.99,427.84 831.49,445.50 C833.52,451.00 835.62,457.08 836.15,459.00 C836.69,460.92 837.77,463.92 838.56,465.65 C839.35,467.38 840.00,469.27 840.00,469.85 C840.00,472.58 847.41,473.93 852.27,472.09 ZM 935.81 469.62 C945.54,463.48 946.43,451.98 937.77,444.37 C935.95,442.77 931.18,439.44 927.18,436.98 C922.74,434.24 919.70,431.65 919.37,430.32 C917.52,423.00 925.70,419.80 935.50,424.00 C938.07,425.10 940.58,426.00 941.08,426.00 C941.59,426.00 942.00,423.96 942.00,421.48 C942.00,417.47 941.68,416.82 939.25,415.84 C929.82,412.04 919.01,413.13 913.19,418.47 C910.04,421.35 909.61,422.36 909.27,427.61 C908.97,432.23 909.32,434.19 910.89,436.68 C912.69,439.55 923.95,448.00 925.97,448.00 C927.45,448.00 933.00,455.02 933.00,456.90 C933.00,457.91 932.07,459.92 930.93,461.37 C929.14,463.63 928.10,464.00 923.42,464.00 C919.93,464.00 916.33,463.23 913.39,461.85 C908.39,459.49 907.05,460.11 907.02,464.75 C906.98,470.28 914.45,473.27 926.24,472.44 C930.05,472.17 933.28,471.22 935.81,469.62 ZM 1023.00 469.91 C1032.50,464.87 1036.19,458.30 1036.80,445.35 C1037.75,425.09 1028.13,413.71 1010.00,413.67 C993.03,413.64 983.27,423.28 982.21,441.12 C981.42,454.43 986.50,465.16 995.87,469.98 C1002.29,473.28 1016.71,473.24 1023.00,469.91 ZM 1173.59 469.29 C1179.18,466.17 1182.44,461.94 1185.00,454.50 C1188.54,444.22 1186.90,431.28 1181.02,423.02 C1176.03,416.02 1163.18,411.82 1153.63,414.06 C1140.40,417.18 1134.58,423.39 1132.04,437.14 C1130.64,444.71 1131.77,452.62 1135.20,459.38 C1137.36,463.62 1141.30,468.00 1142.95,468.00 C1143.53,468.00 1144.00,468.38 1144.00,468.84 C1144.00,469.60 1148.43,471.26 1153.50,472.40 C1158.19,473.45 1169.20,471.75 1173.59,469.29 ZM 1333.14 469.91 C1337.28,467.82 1344.00,460.46 1344.00,458.02 C1344.00,457.13 1344.56,455.84 1345.25,455.15 C1346.10,454.29 1346.48,450.50 1346.44,443.20 C1346.37,430.99 1344.65,425.80 1338.86,420.31 C1326.92,408.98 1301.76,412.58 1295.52,426.50 C1292.50,433.24 1291.78,437.45 1292.20,445.87 C1292.81,457.74 1296.11,463.68 1305.38,469.57 C1311.24,473.29 1326.08,473.47 1333.14,469.91 ZM 1473.31 470.81 C1474.65,470.11 1475.03,468.93 1474.81,466.18 C1474.55,463.11 1474.17,462.56 1472.50,462.88 C1471.40,463.09 1468.04,463.32 1465.04,463.38 C1457.20,463.55 1456.95,462.80 1457.25,440.50 L 1457.50 422.50 L 1466.25 422.21 C1474.72,421.93 1475.00,421.85 1475.00,419.54 C1475.00,414.37 1474.36,414.00 1465.44,414.00 L 1457.09 414.00 L 1456.79 406.75 L 1456.50 399.50 L 1451.50 399.50 L 1446.50 399.50 L 1446.00 406.50 L 1445.50 413.50 L 1442.01 413.83 C1438.07,414.21 1437.04,415.31 1437.02,419.19 C1437.00,421.65 1437.37,421.91 1441.25,422.19 L 1445.50 422.50 L 1446.03 442.50 C1446.33,454.25 1447.03,463.59 1447.71,465.13 C1449.15,468.42 1453.63,471.68 1457.53,472.28 C1461.46,472.89 1471.03,471.99 1473.31,470.81 ZM 1524.65 470.34 C1528.41,468.58 1530.08,464.25 1528.17,461.24 C1527.54,460.25 1526.11,460.42 1521.53,461.99 C1511.79,465.34 1503.39,464.64 1497.64,460.00 C1492.99,456.24 1490.26,445.88 1493.58,444.61 C1494.45,444.27 1503.51,444.00 1513.71,444.00 L 1532.26 444.00 L 1531.79 436.75 C1530.85,422.29 1522.58,414.11 1508.50,413.74 C1500.41,413.52 1494.71,415.37 1489.78,419.80 C1482.48,426.38 1478.79,439.15 1480.97,450.24 C1482.39,457.46 1483.70,460.28 1487.65,464.65 C1490.88,468.22 1495.84,471.00 1501.00,472.11 C1506.02,473.19 1520.94,472.08 1524.65,470.34 ZM 1580.23 470.93 C1581.95,470.44 1583.72,469.47 1584.16,468.77 C1585.24,467.07 1585.22,461.26 1584.14,460.59 C1583.67,460.29 1580.75,460.94 1577.66,462.03 C1569.90,464.76 1562.24,464.64 1557.91,461.72 C1552.33,457.96 1550.04,452.76 1550.02,443.82 C1550.00,435.07 1550.99,431.71 1554.81,427.63 C1560.28,421.78 1569.70,420.32 1577.94,424.06 C1580.38,425.16 1582.97,425.84 1583.69,425.57 C1585.50,424.87 1585.34,419.48 1583.45,417.60 C1579.59,413.73 1566.19,412.62 1556.75,415.38 C1549.77,417.41 1544.75,421.63 1541.23,428.41 C1538.95,432.80 1538.58,434.74 1538.57,442.50 C1538.56,447.45 1539.12,453.42 1539.82,455.76 C1542.23,463.90 1550.50,470.59 1560.00,472.10 C1565.03,472.91 1575.47,472.30 1580.23,470.93 ZM 655.75 466.50 C659.13,454.17 661.58,447.21 663.22,445.23 C664.01,444.28 667.53,444.01 676.75,444.22 L 689.20 444.50 L 691.11 449.50 C692.16,452.25 693.96,457.88 695.12,462.00 C696.27,466.12 697.67,470.06 698.23,470.75 C699.36,472.15 710.00,472.51 710.00,471.15 C710.00,470.68 707.14,461.80 703.64,451.40 C695.77,428.00 688.77,406.89 686.98,401.18 C685.17,395.38 683.05,394.05 676.65,394.70 C673.82,394.98 671.15,395.54 670.73,395.93 C669.81,396.78 666.86,404.41 662.97,416.00 C658.95,427.99 654.59,440.33 651.49,448.50 C650.03,452.35 648.61,456.40 648.33,457.50 C648.06,458.60 647.46,460.40 647.00,461.50 C643.28,470.42 643.76,472.20 649.79,471.80 L 654.38 471.50 L 655.75 466.50 ZM 811.77 444.12 C811.95,424.76 811.70,416.34 810.89,415.37 C809.49,413.68 803.83,413.57 802.20,415.20 C800.87,416.53 800.40,470.07 801.71,471.38 C802.10,471.77 804.47,471.96 806.96,471.80 L 811.50 471.50 L 811.77 444.12 ZM 893.77 443.25 L 893.50 414.50 L 889.00 414.50 L 884.50 414.50 L 884.23 443.25 L 883.97 472.00 L 889.00 472.00 L 894.03 472.00 L 893.77 443.25 ZM 967.77 443.25 L 967.50 414.50 L 963.00 414.50 L 958.50 414.50 L 958.23 443.25 L 957.97 472.00 L 963.00 472.00 L 968.03 472.00 L 967.77 443.25 ZM 1062.00 449.07 L 1062.00 426.14 L 1064.90 424.07 C1068.16,421.75 1077.15,421.20 1081.26,423.07 C1086.12,425.29 1086.48,427.02 1086.83,450.25 L 1087.17 472.00 L 1092.67 472.00 L 1098.16 472.00 L 1097.83 448.67 L 1097.50 425.35 L 1094.79 421.26 C1091.15,415.76 1083.02,412.52 1075.14,413.43 C1072.20,413.77 1068.97,414.48 1067.96,415.02 C1065.59,416.29 1061.29,416.28 1060.50,415.00 C1059.64,413.60 1053.65,413.75 1052.20,415.20 C1051.33,416.07 1051.00,423.76 1051.00,443.53 C1051.00,458.46 1051.30,470.97 1051.67,471.33 C1052.03,471.70 1054.51,472.00 1057.17,472.00 L 1062.00 472.00 L 1062.00 449.07 ZM 1207.00 447.00 L 1207.50 422.50 L 1213.50 422.00 C1218.83,421.56 1219.54,421.24 1219.83,419.19 C1220.36,415.41 1218.32,414.00 1212.26,414.00 L 1206.77 414.00 L 1207.19 407.43 C1207.68,399.66 1208.66,398.70 1215.25,399.49 L 1220.00 400.07 L 1220.00 396.16 C1220.00,392.75 1219.61,392.08 1216.98,390.99 C1210.93,388.49 1202.06,391.29 1198.29,396.90 C1196.46,399.62 1196.00,401.67 1196.00,407.15 L 1196.00 414.00 L 1192.75 414.02 C1188.73,414.03 1187.27,414.92 1186.99,417.50 C1186.56,421.38 1187.03,421.89 1191.25,422.19 L 1195.50 422.50 L 1195.77 447.30 L 1196.04 472.10 L 1201.27 471.80 L 1206.50 471.50 L 1207.00 447.00 ZM 1288.81 467.75 L 1288.50 463.50 L 1274.50 463.00 L 1260.50 462.50 L 1260.00 429.00 L 1259.50 395.50 L 1254.50 395.50 L 1249.50 395.50 L 1249.24 432.50 C1249.09,452.84 1249.19,470.06 1249.46,470.75 C1249.82,471.69 1254.74,472.00 1269.53,472.00 L 1289.11 472.00 L 1288.81 467.75 ZM 1430.78 445.00 C1430.94,430.42 1430.81,417.49 1430.51,416.25 C1430.05,414.34 1429.29,414.00 1425.59,414.00 C1422.52,414.00 1421.03,414.47 1420.61,415.58 C1419.75,417.82 1419.85,470.52 1420.71,471.38 C1421.10,471.77 1423.47,471.96 1425.96,471.80 L 1430.50 471.50 L 1430.78 445.00 ZM 1607.00 448.33 C1607.28,435.59 1607.72,424.99 1608.00,424.78 C1612.01,421.75 1622.65,421.07 1626.51,423.60 C1631.45,426.83 1632.00,429.66 1632.00,451.65 L 1632.00 472.00 L 1636.90 472.00 L 1641.79 472.00 L 1642.31 467.75 C1642.60,465.41 1642.72,455.17 1642.57,445.00 C1642.31,427.93 1642.12,426.19 1640.03,422.50 C1637.54,418.08 1636.55,417.31 1630.00,414.76 C1624.24,412.51 1621.66,412.55 1614.41,414.98 C1611.16,416.06 1608.16,416.96 1607.75,416.98 C1607.34,416.99 1607.00,411.69 1607.00,405.20 C1607.00,392.44 1606.48,391.00 1601.88,391.00 C1595.63,391.00 1596.00,388.47 1596.00,431.44 C1596.00,453.01 1596.32,470.99 1596.71,471.38 C1597.10,471.77 1599.47,471.96 1601.96,471.80 L 1606.50 471.50 L 1607.00 448.33 ZM 811.00 402.00 C813.39,399.61 813.61,394.76 811.43,392.57 C810.56,391.71 808.35,391.00 806.50,391.00 C802.23,391.00 800.00,393.23 800.00,397.51 C800.00,403.34 806.86,406.14 811.00,402.00 ZM 893.42 401.88 C897.35,398.80 896.73,394.11 892.09,391.80 C886.96,389.24 883.05,391.66 883.02,397.42 C882.98,403.50 888.41,405.83 893.42,401.88 ZM 966.69 403.21 C967.86,402.47 970.00,397.76 970.00,395.93 C970.00,395.42 969.10,394.10 968.00,393.00 C965.61,390.61 960.76,390.39 958.57,392.57 C956.52,394.63 956.56,399.86 958.65,402.17 C960.34,404.03 964.54,404.58 966.69,403.21 ZM 1429.78 402.44 C1432.45,400.57 1432.82,394.96 1430.43,392.57 C1428.37,390.52 1423.14,390.56 1420.83,392.65 C1416.97,396.15 1419.74,404.00 1424.83,404.00 C1426.33,404.00 1428.56,403.30 1429.78,402.44 ZM 989.68 336.98 C1003.46,335.18 1015.95,331.81 1028.25,326.57 L 1032.00 324.97 L 1032.00 315.49 C1032.00,310.27 1031.74,306.00 1031.42,306.00 C1031.10,306.00 1027.61,307.08 1023.67,308.39 C1019.73,309.71 1012.58,311.58 1007.79,312.54 C979.86,318.16 953.71,304.34 938.70,276.00 C932.28,263.88 926.70,244.77 925.40,230.49 L 924.72 223.00 L 980.00 223.00 L 1035.28 223.00 L 1034.75 209.75 C1034.29,198.27 1033.82,195.40 1031.20,188.30 C1023.12,166.38 1007.08,154.00 980.44,149.11 C966.50,146.55 939.35,148.21 925.72,152.44 C909.83,157.37 895.52,169.36 888.15,183.93 C881.45,197.18 879.00,208.32 878.30,228.58 C876.97,267.51 886.33,295.04 907.67,314.97 C915.51,322.29 930.40,330.61 941.02,333.60 C954.36,337.37 975.49,338.83 989.68,336.98 ZM 1146.50 336.98 C1169.04,334.90 1187.74,328.52 1200.05,318.71 C1212.05,309.15 1220.29,296.15 1223.48,281.76 C1226.12,269.86 1225.30,249.97 1221.76,240.12 C1218.40,230.75 1213.35,223.11 1205.48,215.48 C1196.02,206.29 1185.45,199.72 1149.00,180.35 C1126.22,168.25 1120.49,164.48 1112.00,156.00 C1101.17,145.19 1098.41,139.05 1099.26,127.76 C1100.48,111.62 1108.18,102.28 1127.00,94.09 C1130.50,92.57 1142.19,91.04 1150.53,91.02 C1166.57,90.97 1190.67,95.56 1206.71,101.72 C1207.81,102.14 1208.00,99.52 1207.78,87.38 L 1207.50 72.53 L 1204.00 71.91 C1202.07,71.57 1196.26,70.54 1191.08,69.62 C1168.65,65.63 1142.55,65.23 1124.71,68.61 C1100.55,73.20 1081.31,85.70 1072.82,102.35 C1068.40,111.02 1066.89,117.34 1066.32,129.50 C1065.69,142.86 1066.89,149.66 1071.65,159.74 C1075.07,166.96 1087.95,180.47 1097.27,186.61 C1102.87,190.30 1129.30,205.14 1136.00,208.36 C1136.82,208.75 1138.40,209.62 1139.50,210.29 C1140.60,210.96 1145.55,213.71 1150.50,216.40 C1163.58,223.53 1172.46,229.41 1178.13,234.72 C1183.39,239.64 1190.00,250.25 1190.00,253.79 C1190.00,254.94 1190.45,256.16 1191.00,256.50 C1192.80,257.61 1192.17,274.18 1190.10,280.20 C1184.10,297.65 1171.21,307.00 1146.23,312.02 C1137.29,313.82 1119.77,312.66 1101.50,309.06 C1094.54,307.69 1093.01,307.24 1079.25,302.60 L 1069.00 299.14 L 1069.00 314.38 L 1069.00 329.62 L 1076.75 331.37 C1086.61,333.60 1093.86,334.71 1107.00,336.01 C1112.78,336.59 1118.18,337.21 1119.00,337.41 C1122.18,338.17 1135.98,337.95 1146.50,336.98 ZM 1618.50 336.59 C1630.57,335.07 1638.80,333.26 1640.78,331.70 C1641.71,330.98 1641.99,328.01 1641.78,321.10 C1641.46,309.99 1642.42,310.57 1629.00,313.44 C1624.88,314.33 1616.55,315.31 1610.50,315.64 C1590.48,316.71 1574.88,311.07 1561.95,298.09 C1547.34,283.41 1539.00,260.49 1539.00,235.01 L 1539.00 226.02 L 1591.64 225.76 C1639.51,225.52 1644.38,225.35 1645.33,223.83 C1647.22,220.84 1644.24,196.24 1640.84,186.71 C1634.84,169.86 1624.65,159.07 1608.80,152.76 C1599.09,148.89 1593.95,148.00 1581.24,148.00 C1544.87,148.00 1524.16,163.25 1513.09,198.17 C1508.93,211.29 1507.63,244.29 1510.53,262.76 C1515.23,292.60 1529.02,314.59 1550.50,326.49 C1568.10,336.24 1592.55,339.87 1618.50,336.59 ZM 616.39 332.17 C616.67,331.72 616.97,324.86 617.06,316.92 L 617.21 302.50 L 567.36 302.00 L 517.50 301.50 L 517.25 185.75 L 516.99 70.00 L 491.50 70.00 L 466.00 70.00 L 466.00 201.50 L 466.00 333.00 L 540.94 333.00 C582.16,333.00 616.11,332.63 616.39,332.17 ZM 691.09 242.50 C691.05,193.00 691.01,152.15 691.01,151.73 C691.00,151.31 680.32,151.08 667.27,151.23 L 643.55 151.50 L 643.73 242.00 C643.84,291.77 643.94,332.62 643.96,332.77 C643.98,332.92 654.61,332.92 667.58,332.77 L 691.16 332.50 L 691.09 242.50 ZM 807.76 253.75 L 808.01 175.00 L 810.26 174.97 C811.49,174.96 822.85,174.85 835.50,174.72 L 858.50 174.50 L 858.78 162.75 L 859.06 151.00 L 833.53 151.00 L 808.00 151.00 L 808.01 136.25 C808.03,115.45 810.75,106.65 819.42,99.40 C825.97,93.93 829.90,92.78 842.50,92.63 C853.81,92.50 861.39,93.70 871.00,97.16 C880.11,100.44 879.46,101.31 879.78,85.24 C880.05,71.19 880.02,70.96 877.78,70.13 C867.59,66.35 822.41,65.18 808.76,68.34 C793.62,71.84 783.09,77.37 775.30,85.89 C771.01,90.58 765.00,101.30 765.00,104.25 C765.00,105.15 764.63,106.11 764.17,106.40 C762.64,107.34 760.81,120.92 760.15,136.28 L 759.50 151.50 L 743.25 151.77 L 727.00 152.05 L 727.00 163.00 L 727.00 173.95 L 743.25 174.23 L 759.50 174.50 L 759.76 253.77 L 760.01 333.04 L 783.76 332.77 L 807.50 332.50 L 807.76 253.75 ZM 1297.76 242.25 L 1297.50 151.50 L 1284.00 151.50 L 1270.50 151.50 L 1270.24 241.00 C1270.10,290.23 1270.20,331.06 1270.46,331.75 C1270.81,332.66 1274.57,333.00 1284.47,333.00 L 1298.01 333.00 L 1297.76 242.25 ZM 1475.79 322.25 C1476.00,314.43 1475.76,311.99 1474.79,311.97 C1474.08,311.95 1452.23,311.96 1426.23,312.00 C1386.89,312.06 1378.87,311.83 1378.43,310.69 C1377.90,309.30 1395.18,283.72 1415.56,255.71 C1417.25,253.39 1421.56,247.23 1425.14,242.00 C1434.13,228.89 1460.72,190.96 1468.93,179.54 C1472.45,174.65 1472.51,174.41 1472.84,163.29 L 1473.17 152.00 L 1412.09 152.00 L 1351.00 152.00 L 1351.00 163.00 L 1351.00 174.00 L 1395.00 174.00 C1419.20,174.00 1439.00,174.24 1439.00,174.53 C1439.00,174.83 1434.20,181.91 1428.34,190.28 C1422.48,198.65 1415.62,208.45 1413.09,212.06 C1393.65,239.84 1370.83,272.43 1365.69,279.75 C1360.70,286.86 1355.74,293.94 1351.34,300.25 C1349.32,303.14 1346.62,306.89 1345.34,308.59 C1343.31,311.27 1343.00,312.82 1343.01,320.09 C1343.02,324.72 1343.30,329.52 1343.63,330.76 L 1344.24 333.01 L 1409.87 332.76 L 1475.50 332.50 L 1475.79 322.25 ZM 691.21 91.25 C691.37,79.84 691.36,70.16 691.19,69.75 C690.85,68.92 646.96,68.70 644.83,69.51 C643.78,69.92 643.52,74.27 643.59,90.26 C643.64,101.39 643.75,110.84 643.84,111.25 C643.93,111.66 654.56,112.00 667.46,112.00 L 690.92 112.00 L 691.21 91.25 ZM 1301.77 87.25 L 1302.05 70.00 L 1284.52 70.00 L 1267.00 70.00 L 1267.00 87.52 L 1267.00 105.05 L 1284.25 104.77 L 1301.50 104.50 L 1301.77 87.25 ZM 1681.59 129.57 C1663.49,121.98 1654.82,99.39 1663.05,81.23 C1668.25,69.74 1676.22,63.44 1688.62,60.99 C1693.72,59.99 1695.70,60.06 1701.09,61.43 C1708.27,63.25 1716.58,68.45 1720.46,73.54 C1725.77,80.50 1727.38,85.75 1727.36,96.00 C1727.34,107.09 1725.04,113.41 1718.26,121.00 C1709.17,131.18 1693.91,134.75 1681.59,129.57 ZM 1685.79 111.75 L 1686.07 102.00 L 1690.43 102.00 C1696.95,102.00 1698.83,104.08 1700.82,113.51 L 1702.51 121.50 L 1707.50 121.50 L 1712.50 121.50 L 1712.28 117.00 C1711.90,109.40 1709.79,102.01 1707.34,99.69 C1704.72,97.21 1704.39,96.00 1706.33,96.00 C1707.05,96.00 1708.73,94.85 1710.06,93.44 C1712.07,91.30 1712.47,89.84 1712.48,84.55 C1712.51,73.58 1707.59,70.50 1690.00,70.50 C1683.68,70.50 1677.71,70.82 1676.75,71.22 C1675.15,71.88 1675.00,74.04 1675.00,96.30 C1675.00,109.70 1675.32,120.99 1675.71,121.38 C1676.10,121.77 1678.47,121.96 1680.96,121.80 L 1685.50 121.50 L 1685.79 111.75 ZM 1373.21 460.86 C1368.08,457.57 1366.00,452.47 1366.00,443.16 C1366.00,431.55 1368.89,426.14 1376.76,423.04 C1381.14,421.31 1390.38,422.13 1392.98,424.49 C1394.85,426.17 1395.00,427.53 1394.98,442.40 C1394.98,451.26 1394.63,459.03 1394.21,459.69 C1391.80,463.48 1378.46,464.22 1373.21,460.86 ZM 752.50 462.42 C747.57,459.85 746.03,457.92 744.37,452.20 C741.95,443.87 743.19,433.44 747.17,428.61 C750.92,424.06 755.69,422.00 762.49,422.00 C766.82,422.00 768.19,422.46 770.36,424.64 C773.00,427.27 773.00,427.29 773.00,443.57 L 773.00 459.86 L 770.10 461.93 C766.49,464.50 756.99,464.76 752.50,462.42 ZM 1003.67 464.03 C1000.60,463.05 997.63,460.09 995.36,455.72 C993.17,451.50 993.14,434.43 995.31,430.30 C998.25,424.72 1002.87,422.00 1009.41,422.00 C1015.75,422.00 1018.41,423.06 1021.75,426.91 C1024.63,430.22 1025.52,434.53 1025.41,444.51 C1025.31,453.62 1023.52,458.50 1019.07,461.79 C1015.81,464.20 1007.86,465.36 1003.67,464.03 ZM 1154.28 464.28 C1150.12,463.76 1144.49,457.37 1143.64,452.22 C1141.59,439.86 1144.00,428.63 1149.60,424.36 C1152.65,422.03 1153.68,421.81 1159.94,422.17 C1167.41,422.59 1170.61,424.46 1173.55,430.12 C1175.26,433.39 1175.62,448.07 1174.13,453.55 C1172.40,459.94 1164.98,465.47 1159.01,464.84 C1158.18,464.75 1156.05,464.50 1154.28,464.28 ZM 1315.00 464.27 C1311.83,463.70 1306.00,459.33 1306.00,457.53 C1306.00,456.78 1305.47,455.99 1304.81,455.77 C1303.99,455.50 1303.61,451.83 1303.58,443.92 C1303.53,432.84 1303.62,432.34 1306.44,428.43 C1310.06,423.39 1312.94,422.00 1319.75,422.00 C1327.23,422.00 1330.66,424.06 1333.57,430.32 C1338.09,440.04 1336.30,454.76 1329.87,460.68 C1325.74,464.48 1321.63,465.48 1315.00,464.27 ZM 1492.67 436.33 C1491.55,435.21 1491.92,432.06 1493.55,428.91 C1495.77,424.61 1500.58,422.01 1506.30,422.00 C1514.67,422.00 1520.00,426.45 1520.00,433.46 L 1520.00 437.00 L 1506.67 437.00 C1499.33,437.00 1493.03,436.70 1492.67,436.33 ZM 666.71 435.81 C665.92,435.33 666.44,432.79 668.42,427.31 C669.99,423.02 671.84,417.48 672.53,415.00 C674.62,407.63 676.02,404.61 676.90,405.59 C678.25,407.07 685.21,429.92 685.36,433.34 L 685.50 436.49 L 676.67 436.50 C671.81,436.50 667.33,436.19 666.71,435.81 ZM 926.32 202.92 C925.60,202.20 925.54,200.47 926.15,197.67 C928.87,185.06 934.87,175.22 943.03,169.98 C947.33,167.22 949.16,166.71 956.26,166.28 C970.86,165.41 979.94,170.83 985.70,183.87 C988.88,191.05 990.53,200.66 988.92,202.60 C987.97,203.74 982.21,204.00 957.58,204.00 C937.36,204.00 927.04,203.64 926.32,202.92 ZM 1542.07 202.59 C1541.13,201.45 1541.52,199.60 1544.01,193.64 C1548.10,183.81 1553.36,177.93 1561.79,173.79 C1568.17,170.65 1568.99,170.50 1579.98,170.50 C1590.86,170.50 1591.80,170.66 1596.80,173.44 C1606.58,178.85 1613.89,189.19 1614.27,198.12 L 1614.50 203.50 L 1578.88 203.76 C1548.90,203.98 1543.08,203.80 1542.07,202.59 ZM 1687.75 93.31 C1686.30,92.93 1686.00,91.68 1686.00,85.93 L 1686.00 79.00 L 1689.38 79.00 C1695.32,79.00 1699.09,80.21 1700.68,82.63 C1702.61,85.58 1701.74,89.49 1698.73,91.38 C1696.20,92.96 1690.37,93.99 1687.75,93.31 Z" fill="rgb(252,252,252)"/>
</g>
</svg>